<svg width="502" height="167" viewBox="0 0 502 167" fill="none" xmlns="http://www.w3.org/2000/svg">
<rect width="502" height="167" rx="12" fill="#F25D9C"/>
<g clip-path="url(#clip0_1_45)">
<path d="M111.084 56.1195H126.517V50.7652H116.479V41H100.656V46.3542H111.084V56.1195Z" fill="#0C056D"/>
<path d="M100.684 68.6589H106.078V52.8736H96.262V42.8587H90.895V58.2556H100.684V68.6589Z" fill="#0C056D"/>
<path d="M122.04 76.288H127.435V66.3008H137.224V50.5155H131.829V60.9189H122.04V76.288Z" fill="#0C056D"/>
<path d="M110.889 72.2377H101.156L100.878 84.4165L106.273 84.5275L106.44 77.6197H116.284V61.8344H110.889V72.2377Z" fill="#0C056D"/>
<path d="M147.151 81.5591H141.784V91.9624H131.996V107.359H137.363V97.3443H147.151V81.5591Z" fill="#0C056D"/>
<path d="M131.745 81.5868H119.426V86.9688H137.14V77.1758H145.288V71.8215H131.745V81.5868Z" fill="#0C056D"/>
<path d="M137.613 118.04V112.658H127.185V100.646H111.779V106.028H121.79V118.04H137.613Z" fill="#0C056D"/>
<path d="M110.444 84.5552V96.734H126.267V91.3521H115.839V84.5552H110.444Z" fill="#0C056D"/>
<path d="M106.495 127.944V122.59H96.0674V112.824H80.6338V118.179H90.6726V127.944H106.495Z" fill="#0C056D"/>
<path d="M116.256 126.085V110.688H106.468V100.285H101.073V116.07H110.889V126.085H116.256Z" fill="#0C056D"/>
<path d="M75.3224 108.025H85.1109V92.6559H79.7161V102.643H69.9276V118.428H75.3224V108.025Z" fill="#0C056D"/>
<path d="M90.8672 107.11H96.262V94.903H106.356V89.5211H90.8672V107.11Z" fill="#0C056D"/>
<path d="M65.367 76.9816H75.6839V61.5847H70.3169V71.5996H60V87.3849H65.367V76.9816Z" fill="#0C056D"/>
<path d="M70.3169 91.7682H61.8632V97.1224H75.6839V87.3572H87.7249V81.9752H70.3169V91.7682Z" fill="#0C056D"/>
<path d="M79.9664 68.0764H95.3721V62.7221H85.3612V50.9039H69.5382V56.2859H79.9664V68.0764Z" fill="#0C056D"/>
<path d="M80.884 77.1758H91.3121V84.25H96.707V71.7938H80.884V77.1758Z" fill="#0C056D"/>
<path d="M186.31 99.8027C186.31 101.822 186.658 103.51 187.352 104.867C188.046 106.223 189.666 106.901 192.211 106.901C193.368 106.901 194.467 106.843 195.508 106.728V117.635C193.426 117.866 191.488 117.981 189.694 117.981C185.992 117.981 182.999 117.678 180.714 117.072C178.429 116.466 176.65 115.298 175.377 113.566C174.105 111.835 173.468 109.354 173.468 106.122V79.7198H167.655V68.3799H173.468V55.655H186.31V68.3799H195.855V79.7198H186.31V99.8027ZM228.568 81.5809C226.08 82.1869 223.795 83.6152 221.713 85.8658C219.63 88.1165 218.589 91.4059 218.589 95.7341V116.769H205.66V69.159H218.589V75.4782C220.729 72.6504 223.347 70.7316 226.442 69.7217C229.537 68.7118 232.357 68.2356 234.902 68.2934V80.9317C233.166 80.7586 231.055 80.975 228.568 81.5809ZM277.94 112.008C276.841 113.509 274.946 114.85 272.256 116.033C269.567 117.216 266.631 117.808 263.449 117.808C258.532 117.808 254.266 116.711 250.651 114.519C247.035 112.326 244.273 109.339 242.364 105.559C240.455 101.779 239.501 97.5808 239.501 92.9641C239.501 88.3474 240.455 84.149 242.364 80.369C244.273 76.5891 247.035 73.6026 250.651 71.4097C254.266 69.2167 258.532 68.1202 263.449 68.1202C266.747 68.1202 269.653 68.6829 272.17 69.8082C274.686 70.9336 276.609 72.3619 277.94 74.0931V69.159H290.782V116.769H277.94V112.008ZM274.903 83.2256C272.531 80.7153 269.35 79.4601 265.358 79.4601C261.309 79.4601 258.113 80.7153 255.77 83.2256C253.427 85.736 252.256 88.9822 252.256 92.9641C252.256 96.8306 253.456 100.033 255.857 102.573C258.258 105.112 261.425 106.382 265.358 106.382C269.408 106.382 272.604 105.184 274.946 102.789C277.289 100.394 278.461 97.1192 278.461 92.9641C278.461 88.9822 277.275 85.736 274.903 83.2256ZM314.383 114.648C310.392 112.427 307.225 109.411 304.882 105.602C302.539 101.794 301.368 97.6386 301.368 93.1372C301.368 88.6359 302.539 84.4953 304.882 80.7153C307.225 76.9353 310.378 73.9344 314.34 71.7126C318.303 69.4908 322.627 68.3799 327.312 68.3799C332.345 68.3799 336.9 69.5774 340.979 71.9723C345.057 74.3673 348.311 77.7865 350.74 82.2302L339.026 86.8181C337.638 84.452 335.931 82.6774 333.907 81.4944C331.882 80.3113 329.684 79.7198 327.312 79.7198C323.552 79.7198 320.443 80.9894 317.984 83.5286C315.526 86.0678 314.297 89.2707 314.297 93.1372C314.297 97.0038 315.54 100.207 318.028 102.746C320.515 105.285 323.639 106.555 327.399 106.555C332.605 106.555 336.626 104.246 339.46 99.6295L350.48 103.958C345.91 113.307 338.216 117.981 327.399 117.981C322.713 117.981 318.375 116.87 314.383 114.648ZM373.127 51.3268V89.415L389.353 69.4187H405.232L386.056 91.5791L406.013 116.769H390.308L377.813 101.188L373.127 106.555V116.769H360.111V51.3268H373.127ZM436.469 81.5809C433.982 82.1869 431.697 83.6152 429.614 85.8658C427.532 88.1165 426.491 91.4059 426.491 95.7341V116.769H413.562V69.159H426.491V75.4782C428.631 72.6504 431.249 70.7316 434.343 69.7217C437.438 68.7118 440.258 68.2356 442.804 68.2934V80.9317C441.068 80.7586 438.957 80.975 436.469 81.5809Z" fill="#0C056D"/>
</g>
<defs>
<clipPath id="clip0_1_45">
<rect width="382.804" height="86.9439" fill="white" transform="translate(60 41)"/>
</clipPath>
</defs>
</svg>
