<svg width="370" height="85" viewBox="0 0 370 85" fill="none" xmlns="http://www.w3.org/2000/svg">
<g clip-path="url(#clip0_1_2)">
<path d="M49.3496 14.641H64.2592V9.4562H54.5612V0H39.2755V5.18479H49.3496V14.641Z" fill="#0C056D"/>
<path d="M39.3023 26.7836H44.514V11.4979H35.0309V1.7999H29.8461V16.7095H39.3023V26.7836Z" fill="#0C056D"/>
<path d="M59.9341 34.1713H65.1457V24.5002H74.6019V9.21442H69.3903V19.2885H59.9341V34.1713Z" fill="#0C056D"/>
<path d="M49.1615 30.2491H39.759L39.4904 42.0425L44.7021 42.15L44.8632 35.4608H54.3732V20.175H49.1615V30.2491Z" fill="#0C056D"/>
<path d="M84.1924 39.2755H79.0077V49.3496H69.5515V64.2592H74.7362V54.5612H84.1924V39.2755Z" fill="#0C056D"/>
<path d="M69.3097 39.3023H57.4088V44.514H74.5213V35.0309H82.3925V29.8461H69.3097V39.3023Z" fill="#0C056D"/>
<path d="M74.978 74.6019V69.3903H64.9039V57.7581H50.0212V62.9697H59.6923V74.6019H74.978Z" fill="#0C056D"/>
<path d="M48.7317 42.1768V53.9702H64.0174V48.7585H53.9433V42.1768H48.7317Z" fill="#0C056D"/>
<path d="M44.917 84.1924V79.0077H34.8429V69.5515H19.9332V74.7362H29.6312V84.1924H44.917Z" fill="#0C056D"/>
<path d="M54.3463 82.3925V67.4829H44.8901V57.4088H39.6785V72.6946H49.1615V82.3925H54.3463Z" fill="#0C056D"/>
<path d="M14.8022 64.9039H24.2584V50.0212H19.0467V59.6923H9.59052V74.978H14.8022V64.9039Z" fill="#0C056D"/>
<path d="M29.8193 64.0174H35.0309V52.1972H44.7826V46.9855H29.8193V64.0174Z" fill="#0C056D"/>
<path d="M5.18479 34.8429H15.1514V19.9332H9.96662V29.6312H0V44.917H5.18479V34.8429Z" fill="#0C056D"/>
<path d="M9.96662 49.1615H1.7999V54.3463H15.1514V44.8901H26.7836V39.6784H9.96662V49.1615Z" fill="#0C056D"/>
<path d="M19.2885 26.2195H34.1713V21.0347H24.5002V9.59052H9.21442V14.8022H19.2885V26.2195Z" fill="#0C056D"/>
<path d="M20.175 35.0309H30.2491V41.8813H35.4608V29.8193H20.175V35.0309Z" fill="#0C056D"/>
<path d="M122.022 56.9417C122.022 58.8976 122.358 60.5322 123.028 61.8455C123.699 63.1587 125.263 63.8153 127.722 63.8153C128.84 63.8153 129.902 63.7595 130.908 63.6477V74.2096C128.896 74.4331 127.024 74.5449 125.291 74.5449C121.715 74.5449 118.823 74.2515 116.616 73.6647C114.408 73.0779 112.69 71.9463 111.46 70.2698C110.231 68.5933 109.616 66.1904 109.616 63.0609V37.4944H104V26.5134H109.616V14.1912H122.022V26.5134H131.243V37.4944H122.022V56.9417ZM162.845 39.2967C160.442 39.8834 158.234 41.2665 156.223 43.446C154.211 45.6254 153.205 48.8107 153.205 53.002V73.3713H140.715V27.2678H153.205V33.387C155.273 30.6488 157.801 28.7907 160.791 27.8127C163.781 26.8348 166.505 26.3737 168.964 26.4296V38.668C167.288 38.5003 165.248 38.7099 162.845 39.2967ZM210.541 68.761C209.479 70.2139 207.649 71.5132 205.05 72.6588C202.452 73.8044 199.616 74.3772 196.542 74.3772C191.792 74.3772 187.671 73.3154 184.178 71.1919C180.685 69.0683 178.017 66.1764 176.173 62.5161C174.329 58.8557 173.407 54.7902 173.407 50.3196C173.407 45.8489 174.329 41.7835 176.173 38.1231C178.017 34.4628 180.685 31.5708 184.178 29.4473C187.671 27.3237 191.792 26.262 196.542 26.262C199.728 26.262 202.536 26.8068 204.967 27.8965C207.398 28.9862 209.256 30.3694 210.541 32.0458V27.2678H222.947V73.3713H210.541V68.761ZM207.607 40.8893C205.316 38.4584 202.242 37.243 198.386 37.243C194.475 37.243 191.387 38.4584 189.124 40.8893C186.861 43.3202 185.729 46.4637 185.729 50.3196C185.729 54.0638 186.888 57.1653 189.208 59.6241C191.527 62.083 194.586 63.3124 198.386 63.3124C202.298 63.3124 205.386 62.1528 207.649 59.8337C209.912 57.5145 211.044 54.3432 211.044 50.3196C211.044 46.4637 209.898 43.3202 207.607 40.8893ZM245.747 71.3176C241.891 69.1661 238.832 66.2462 236.568 62.558C234.305 58.8697 233.174 54.8461 233.174 50.4872C233.174 46.1284 234.305 42.1188 236.568 38.4584C238.832 34.7981 241.877 31.8922 245.705 29.7407C249.533 27.5892 253.711 26.5134 258.237 26.5134C263.099 26.5134 267.5 27.673 271.439 29.9921C275.379 32.3113 278.523 35.6224 280.87 39.9254L269.553 44.368C268.212 42.0768 266.564 40.3584 264.608 39.2128C262.652 38.0672 260.528 37.4944 258.237 37.4944C254.605 37.4944 251.601 38.7239 249.226 41.1827C246.851 43.6416 245.663 46.7431 245.663 50.4872C245.663 54.2314 246.865 57.3329 249.268 59.7918C251.671 62.2506 254.689 63.48 258.321 63.48C263.35 63.48 267.234 61.2447 269.973 56.7741L280.618 60.9653C276.203 70.0184 268.771 74.5449 258.321 74.5449C253.794 74.5449 249.603 73.4691 245.747 71.3176ZM302.496 10V46.8828L318.172 27.5193H333.512L314.986 48.9784L334.266 73.3713H319.094L307.023 58.2829L302.496 63.48V73.3713H289.923V10H302.496ZM363.688 39.2967C361.285 39.8834 359.078 41.2665 357.066 43.446C355.054 45.6254 354.049 48.8107 354.049 53.002V73.3713H341.559V27.2678H354.049V33.387C356.116 30.6488 358.645 28.7907 361.635 27.8127C364.624 26.8348 367.349 26.3737 369.808 26.4296V38.668C368.131 38.5003 366.091 38.7099 363.688 39.2967Z" fill="#0C056D"/>
</g>
<defs>
<clipPath id="clip0_1_2">
<rect width="369.808" height="84.1924" fill="white"/>
</clipPath>
</defs>
</svg>
