<svg width="256" height="256" viewBox="0 0 256 256" fill="none" xmlns="http://www.w3.org/2000/svg">
<path d="M150.055 44.5182H195.39V28.753H165.902V0H119.423V15.7652H150.055V44.5182Z" fill="#F5F6FF"/>
<path d="M119.505 81.4397H135.352V34.9611H106.517V5.47287H90.7517V50.8079H119.505V81.4397Z" fill="#F5F6FF"/>
<path d="M182.239 103.903H198.086V74.4965H226.839V28.0179H210.992V58.6496H182.239V103.903Z" fill="#F5F6FF"/>
<path d="M149.483 91.977H120.893L120.077 127.837L135.923 128.163L136.414 107.824H165.33V61.3452H149.483V91.977Z" fill="#F5F6FF"/>
<path d="M256 119.423H240.235V150.055H211.482V195.39H227.247V165.902H256V119.423Z" fill="#F5F6FF"/>
<path d="M210.747 119.505H174.56V135.352H226.593V106.517H250.527V90.7517H210.747V119.505Z" fill="#F5F6FF"/>
<path d="M227.982 226.839V210.992H197.35V175.622H152.097V191.469H181.504V226.839H227.982Z" fill="#F5F6FF"/>
<path d="M148.176 128.245V164.105H194.655V148.258H164.023V128.245H148.176Z" fill="#F5F6FF"/>
<path d="M136.577 256V240.235H105.945V211.482H60.6101V227.247H90.0983V256H136.577Z" fill="#F5F6FF"/>
<path d="M165.248 250.527V205.192H136.495V174.56H120.648V221.039H149.483V250.527H165.248Z" fill="#F5F6FF"/>
<path d="M45.0083 197.35H73.7613V152.097H57.9145V181.504H29.1615V227.982H45.0083V197.35Z" fill="#F5F6FF"/>
<path d="M90.6701 194.655H106.517V158.713H136.168V142.867H90.6701V194.655Z" fill="#F5F6FF"/>
<path d="M15.7652 105.945H46.0702V60.6101H30.305V90.0983H0V136.577H15.7652V105.945Z" fill="#F5F6FF"/>
<path d="M30.305 149.483H5.47288V165.248H46.0702V136.495H81.4397V120.648H30.305V149.483Z" fill="#F5F6FF"/>
<path d="M58.6496 79.7243H103.903V63.9591H74.4965V29.1614H28.0179V45.0083H58.6496V79.7243Z" fill="#F5F6FF"/>
<path d="M61.3452 106.517H91.977V127.347H107.824V90.6701H61.3452V106.517Z" fill="#F5F6FF"/>
</svg>
